# xmcd CD database file
#
# Track frame offsets:
#	150
#	17453
#	48316
#	72390
#	85932
#	95111
#	110118
#	123564
#
# Disc length: 1938 seconds
#
# Revision: 1
# Processed by: cddbd v1.5.2PL0 Copyright (c) Steve Scherf et al.
# Submitted via: CDex 1.70beta2
#
DISCID=6c079008
DTITLE=Eric Quincy Tate - Drinking Man's Friend
DYEAR=1972
DGENRE=Southern Rock
TTITLE0=Brown Sugar
TTITLE1=Things (I Think I Think I'll Find)
TTITLE2=Whiskey Woman Blues
TTITLE3=Another Sunshine Song
TTITLE4=Water To Wine
TTITLE5=Can't Get Home For Your Party
TTITLE6=Texas Sand
TTITLE7=Suzie B. Dunn
EXTD=YEAR: 1972
EXTT0=
EXTT1=
EXTT2=
EXTT3=
EXTT4=
EXTT5=
EXTT6=
EXTT7=
PLAYORDER=
